<svg xmlns="http://www.w3.org/2000/svg" viewBox="0 0 410 404" role="img" aria-label="Vite">
  <path fill="#41D1FF" d="M399.6 59.5 215.7 388.6c-3.8 6.8-13.6 6.8-17.5.1L10.4 59.6c-4.2-7.4 2.1-16.4 10.5-14.9l184.2 33.1a10 10 0 0 0 3.5 0l180.5-33c8.4-1.5 14.7 7.5 10.5 14.8Z"/>
  <path fill="#BD34FE" d="M292 1.1 156 27.7a5 5 0 0 0-4 4.6l-8.4 142.4a5 5 0 0 0 6.1 5.2l37.8-8.7c3.5-.8 6.6 2.3 5.9 5.8l-11.2 54.9a5 5 0 0 0 6.3 5.8l23.4-7.1c3.5-1.1 6.9 2 6.2 5.6l-17.9 86.7c-1 5 5.7 7.7 8.5 3.5l1.9-2.9 110.9-221.2c1.8-3.6-1.3-7.7-5.3-7l-38.9 7.5a5 5 0 0 1-5.7-6.3l25.4-88.9a5 5 0 0 0-5.8-6.3Z"/>
  <path fill="#FFEA83" d="M229.7 15.2 129.1 34.9a5 5 0 0 0-4 4.6l-6.2 105.3a5 5 0 0 0 6.1 5.2l30.2-7c3.5-.8 6.6 2.3 5.9 5.8l-9.1 44.9a5 5 0 0 0 6.3 5.8l18.5-5.6c3.5-1.1 6.9 2 6.2 5.6L169.2 266c-.9 4.5 5 7.2 8.1 3.8l2-2.3 83.5-166.6c1.8-3.6-1.3-7.7-5.3-7l-30.1 5.8a5 5 0 0 1-5.7-6.3l18.8-65.9a5 5 0 0 0-5.8-6.3l-5 .9Z"/>
</svg>
